<svg xmlns="http://www.w3.org/2000/svg" width="256" height="256" viewBox="0 0 100 100"><rect width="100" height="100" rx="20" fill="#1e355e"></rect><path fill="#fff" d="M39.78 49.83L39.78 49.83Q39.78 46.05 38.73 43.28Q37.68 40.52 35.83 38.73Q33.97 36.95 31.42 36.07Q28.86 35.20 25.85 35.20L25.85 35.20Q24.24 35.20 22.95 35.30Q21.65 35.41 20.46 35.55L20.46 35.55L20.46 64.31Q21.65 64.59 23.16 64.70Q24.66 64.81 26.13 64.81L26.13 64.81Q32.64 64.81 36.21 61.03Q39.78 57.25 39.78 49.83ZM49.09 49.76L49.09 49.76Q49.09 55.43 47.45 59.66Q45.80 63.90 42.79 66.66Q39.78 69.43 35.55 70.83Q31.31 72.23 26.13 72.23L26.13 72.23Q24.94 72.23 23.54 72.19Q22.14 72.16 20.63 71.98Q19.13 71.81 17.63 71.53Q16.12 71.25 14.79 70.76L14.79 70.76Q11.43 69.50 11.43 66.56L11.43 66.56L11.43 32.26Q11.43 30.99 12.13 30.30Q12.83 29.59 14.09 29.17L14.09 29.17Q16.68 28.27 19.73 28.02Q22.77 27.77 25.50 27.77L25.50 27.77Q30.75 27.77 35.13 29.14Q39.50 30.51 42.58 33.23Q45.66 35.97 47.38 40.09Q49.09 44.23 49.09 49.76ZM57.14 71.25L57.14 71.25Q56.23 70.48 55.67 69.29Q55.11 68.09 55.11 66.63L55.11 66.63Q55.11 65.23 55.78 63.90Q56.44 62.57 57.42 61.31L57.42 61.31L77.02 36.18L56.65 36.18Q56.30 35.55 55.98 34.63Q55.67 33.73 55.67 32.54L55.67 32.54Q55.67 30.58 56.55 29.59Q57.42 28.62 59.03 28.62L59.03 28.62L85.84 28.62Q88.08 30.51 88.08 33.38L88.08 33.38Q88.08 34.77 87.49 36.04Q86.89 37.30 85.91 38.55L85.91 38.55L66.24 63.76L87.52 63.76Q87.87 64.39 88.22 65.30Q88.57 66.20 88.57 67.40L88.57 67.40Q88.57 69.36 87.70 70.30Q86.82 71.25 85.28 71.25L85.28 71.25L57.14 71.25Z"></path></svg>